<svg width="292" height="171" viewBox="0 0 292 171" fill="none" xmlns="http://www.w3.org/2000/svg">
<path d="M170.815 84.9561L235.673 20.0986L271.197 55.624L206.245 120.576H271.294V120.579H291.391V170.818H221.055V170.816L221.053 170.817C207.728 170.817 194.948 165.524 185.526 156.103C176.105 146.681 170.812 133.901 170.812 120.577L170.811 120.576H120.576C120.576 133.901 115.283 146.681 105.861 156.103C96.4395 165.524 83.6602 170.816 70.3359 170.816V170.818H0V120.579H20.0938V120.576H85.0391L20.0869 55.624L55.6113 20.0986L120.576 85.0635V0H170.815V84.9561Z" fill="white"/>
</svg>
