<svg width="212" height="54" viewBox="0 0 212 54" fill="none" xmlns="http://www.w3.org/2000/svg">
<g filter="url(#filter0_d_2797_133)">
<path d="M41.876 26.6338L53.165 15.3467L59.5605 21.7412L48.4697 32.8311H63.9814L63.9814 41.874H51.7217L51.7217 32.832H51.7207L51.7207 41.874C50.533 41.874 49.3561 41.641 48.2588 41.1865C47.1616 40.732 46.165 40.0653 45.3252 39.2256C44.4855 38.3859 43.8187 37.3891 43.3643 36.292C42.9192 35.2174 42.6871 34.0669 42.6777 32.9043V32.8311H32.2285V32.8711C32.2233 34.0449 31.9903 35.2073 31.541 36.292C31.0866 37.3889 30.4206 38.386 29.5811 39.2256C28.7413 40.0653 27.7437 40.732 26.6465 41.1865C25.5493 41.6409 24.3732 41.874 23.1855 41.874L23.1855 32.832H23.1846L23.1846 41.874H10.9238L10.9238 32.8311H26.4365L15.3457 21.7412L21.7412 15.3467L33.0332 26.6367V10.9238L41.876 10.9238V26.6338Z" fill="white"/>
<path d="M77.7855 11.005H97.5633V15.6774H83.3327V24.1261H96.1979V28.7559H83.3327V41.8984H77.7855V11.005ZM108.244 42.3465C106.025 42.3465 104.069 41.8487 102.377 40.853C100.698 39.8574 99.4039 38.4563 98.4936 36.65C97.5833 34.8436 97.1281 32.7598 97.1281 30.3987C97.1281 28.0092 97.5833 25.9183 98.4936 24.1261C99.4039 22.3198 100.698 20.9187 102.377 19.9231C104.069 18.9275 106.025 18.4296 108.244 18.4296C110.477 18.4296 112.433 18.9275 114.111 19.9231C115.789 20.9187 117.077 22.3198 117.973 24.1261C118.869 25.9183 119.317 28.0092 119.317 30.3987C119.317 32.7598 118.869 34.8436 117.973 36.65C117.077 38.4563 115.789 39.8574 114.111 40.853C112.433 41.8487 110.477 42.3465 108.244 42.3465ZM108.286 38.0154C109.481 38.0154 110.491 37.6812 111.316 37.0127C112.155 36.3299 112.781 35.4125 113.194 34.2604C113.606 33.1083 113.812 31.814 113.812 30.3774C113.812 28.9266 113.606 27.6251 113.194 26.473C112.781 25.3209 112.155 24.4106 111.316 23.7421C110.491 23.0594 109.481 22.718 108.286 22.718C107.063 22.718 106.025 23.0594 105.172 23.7421C104.318 24.4106 103.678 25.3209 103.251 26.473C102.825 27.6251 102.611 28.9266 102.611 30.3774C102.611 31.8282 102.825 33.1296 103.251 34.2817C103.678 35.4196 104.318 36.3299 105.172 37.0127C106.025 37.6812 107.063 38.0154 108.286 38.0154ZM121.399 18.7283H126.648V22.59H126.904C127.316 21.253 128.034 20.2218 129.058 19.4964C130.083 18.7568 131.263 18.387 132.6 18.387C133.283 18.387 133.944 18.4367 134.584 18.5363V23.5501C134.357 23.4505 133.987 23.3723 133.475 23.3154C132.963 23.2585 132.486 23.2301 132.045 23.2301C131.064 23.2301 130.175 23.4434 129.379 23.8701C128.582 24.2968 127.956 24.8942 127.501 25.6623C127.046 26.4161 126.818 27.2838 126.818 28.2652V41.8984H121.399V18.7283ZM139.014 42.2398C138.416 42.2398 137.861 42.0905 137.349 41.7918C136.837 41.4788 136.432 41.0735 136.133 40.5757C135.849 40.0636 135.707 39.5089 135.707 38.9115C135.707 38.3283 135.849 37.7878 136.133 37.29C136.432 36.778 136.837 36.3797 137.349 36.0952C137.861 35.7965 138.416 35.6472 139.014 35.6472C139.582 35.6472 140.123 35.7965 140.635 36.0952C141.147 36.3797 141.552 36.778 141.851 37.29C142.15 37.7878 142.299 38.3283 142.299 38.9115C142.299 39.5089 142.15 40.0636 141.851 40.5757C141.552 41.0735 141.147 41.4788 140.635 41.7918C140.123 42.0905 139.582 42.2398 139.014 42.2398ZM139.014 25.6836C138.416 25.6836 137.861 25.5343 137.349 25.2356C136.837 24.9227 136.432 24.5173 136.133 24.0195C135.849 23.5074 135.707 22.9527 135.707 22.3553C135.707 21.7722 135.849 21.2317 136.133 20.7338C136.432 20.2218 136.837 19.8235 137.349 19.5391C137.861 19.2404 138.416 19.091 139.014 19.091C139.582 19.091 140.123 19.2404 140.635 19.5391C141.147 19.8235 141.552 20.2218 141.851 20.7338C142.15 21.2317 142.299 21.7722 142.299 22.3553C142.299 22.9527 142.15 23.5074 141.851 24.0195C141.552 24.5173 141.147 24.9227 140.635 25.2356C140.123 25.5343 139.582 25.6836 139.014 25.6836ZM155.647 42.3465C153.357 42.3465 151.365 41.8629 149.673 40.8957C147.98 39.9285 146.671 38.5488 145.747 36.7566C144.837 34.9645 144.381 32.8665 144.381 30.4627C144.381 28.0874 144.837 25.9894 145.747 24.1688C146.671 22.334 147.959 20.9187 149.609 19.9231C151.259 18.9275 153.179 18.4296 155.369 18.4296C157.346 18.4296 159.131 18.8492 160.724 19.6884C162.317 20.5276 163.583 21.8291 164.522 23.5928C165.461 25.3423 165.93 27.5113 165.93 30.1V31.8069H146.963V28.1158H160.724C160.724 27.0633 160.504 26.1246 160.063 25.2996C159.622 24.4746 158.996 23.8275 158.185 23.3581C157.389 22.8887 156.471 22.654 155.433 22.654C154.324 22.654 153.342 22.9172 152.489 23.4434C151.635 23.9697 150.967 24.6809 150.483 25.5769C150.014 26.4588 149.772 27.426 149.758 28.4785V31.6362C149.758 32.9874 150 34.1537 150.483 35.1352C150.981 36.1024 151.678 36.842 152.574 37.354C153.47 37.8661 154.516 38.1221 155.711 38.1221C156.479 38.1221 157.168 38.0154 157.78 37.8021C158.406 37.5887 158.939 37.3114 159.38 36.97C159.821 36.6144 160.155 36.1948 160.383 35.7112H165.717C165.39 37.034 164.771 38.2003 163.861 39.2102C162.965 40.2058 161.812 40.981 160.404 41.5357C158.996 42.0762 157.41 42.3465 155.647 42.3465ZM181.112 25.3209C180.942 24.4106 180.501 23.7066 179.79 23.2087C179.078 22.7109 178.154 22.462 177.016 22.462C176.248 22.462 175.558 22.5758 174.946 22.8034C174.335 23.0309 173.851 23.3581 173.496 23.7848C173.154 24.2115 172.984 24.688 172.984 25.2142C172.969 25.8259 173.232 26.3521 173.773 26.7931C174.313 27.234 175.153 27.5825 176.291 27.8385L180.238 28.6919C182.428 29.1471 184.057 29.8938 185.123 30.9321C186.204 31.9704 186.745 33.3145 186.745 34.9645C186.745 36.401 186.339 37.6812 185.529 38.8048C184.718 39.9143 183.573 40.7819 182.094 41.4077C180.614 42.0336 178.872 42.3465 176.867 42.3465C174.918 42.3465 173.232 42.0691 171.81 41.5144C170.388 40.9597 169.264 40.1561 168.439 39.1035C167.614 38.0368 167.102 36.7709 166.903 35.3058H172.429C172.628 36.273 173.097 37.0055 173.837 37.5034C174.577 37.987 175.579 38.2288 176.845 38.2288C177.713 38.2288 178.474 38.1221 179.128 37.9087C179.782 37.6812 180.287 37.3611 180.643 36.9487C180.999 36.5219 181.176 36.0241 181.176 35.4552C181.176 34.7725 180.906 34.2106 180.366 33.7697C179.825 33.3288 178.979 32.9874 177.827 32.7456L174.093 31.9775C171.945 31.5224 170.317 30.7472 169.207 29.652C168.112 28.5426 167.564 27.17 167.564 25.5343C167.564 24.1119 167.948 22.8674 168.716 21.8006C169.499 20.7196 170.594 19.8875 172.002 19.3044C173.424 18.7212 175.074 18.4296 176.952 18.4296C178.758 18.4296 180.337 18.7141 181.688 19.283C183.054 19.8378 184.128 20.6343 184.91 21.6726C185.692 22.7109 186.14 23.927 186.254 25.3209H181.112ZM200.242 22.91H186.971V18.7283H200.242V22.91ZM195.697 13.1812V34.9431C195.697 35.6401 195.804 36.1877 196.017 36.586C196.23 36.97 196.515 37.2402 196.871 37.3967C197.24 37.5389 197.681 37.6172 198.193 37.6314C198.819 37.6456 199.609 37.61 200.562 37.5247V41.9838C199.68 42.1402 198.656 42.2185 197.489 42.2185C196.095 42.2185 194.851 41.9838 193.756 41.5144C192.66 41.0308 191.8 40.3125 191.174 39.3595C190.548 38.4066 190.242 37.226 190.257 35.8179V13.1812H195.697Z" fill="white"/>
</g>
<defs>
<filter id="filter0_d_2797_133" x="0.000164986" y="-0.0252256" width="212.829" height="53.2956" filterUnits="userSpaceOnUse" color-interpolation-filters="sRGB">
<feFlood flood-opacity="0" result="BackgroundImageFix"/>
<feColorMatrix in="SourceAlpha" type="matrix" values="0 0 0 0 0 0 0 0 0 0 0 0 0 0 0 0 0 0 127 0" result="hardAlpha"/>
<feOffset/>
<feGaussianBlur stdDeviation="5.46183"/>
<feComposite in2="hardAlpha" operator="out"/>
<feColorMatrix type="matrix" values="0 0 0 0 1 0 0 0 0 1 0 0 0 0 1 0 0 0 0.6 0"/>
<feBlend mode="normal" in2="BackgroundImageFix" result="effect1_dropShadow_2797_133"/>
<feBlend mode="normal" in="SourceGraphic" in2="effect1_dropShadow_2797_133" result="shape"/>
</filter>
</defs>
</svg>
